HIERARCHY
ROOT Hips
{
	OFFSET 0.000000 0.000000 0.000000
	CHANNELS 6 Xposition Yposition Zposition Xrotation Yrotation Zrotation
	JOINT LeftUpLeg_virtual
	{
		OFFSET 0.000000 0.000000 0.000000
		CHANNELS 3 Xrotation Yrotation Zrotation
		JOINT LeftUpLeg
		{
			OFFSET 15.427100 -6.655098 0.678600
			CHANNELS 3 Xrotation Yrotation Zrotation
			JOINT LeftLeg
			{
				OFFSET 4.081073 -39.591068 13.024000
				CHANNELS 3 Xrotation Yrotation Zrotation
				JOINT LeftFoot
				{
					OFFSET -4.081074 -37.707932 -15.979700
					CHANNELS 3 Xrotation Yrotation Zrotation
					JOINT LeftToeBase
					{
						OFFSET 5.346399 -15.068900 20.645000
						CHANNELS 3 Xrotation Yrotation Zrotation
						JOINT LeftToe_End
						{
							OFFSET 2.754700 0.931300 11.300900
							CHANNELS 3 Xrotation Yrotation Zrotation
							End Site
							{
								OFFSET 0 0 0
							}
						}
					}
				}
			}
		}
	}
	JOINT RightUpLeg_virtual
	{
		OFFSET 0.000000 0.000000 0.000000
		CHANNELS 3 Xrotation Yrotation Zrotation
		JOINT RightUpLeg
		{
			OFFSET -15.569500 -6.655098 0.678600
			CHANNELS 3 Xrotation Yrotation Zrotation
			JOINT RightLeg
			{
				OFFSET -4.081825 -39.591045 13.023800
				CHANNELS 3 Xrotation Yrotation Zrotation
				JOINT RightFoot
				{
					OFFSET 4.081824 -37.707954 -15.979600
					CHANNELS 3 Xrotation Yrotation Zrotation
					JOINT RightToeBase
					{
						OFFSET -5.346400 -15.068900 20.645000
						CHANNELS 3 Xrotation Yrotation Zrotation
						JOINT RightToe_End
						{
							OFFSET -2.754700 0.931300 11.300900
							CHANNELS 3 Xrotation Yrotation Zrotation
							End Site
							{
								OFFSET 0 0 0
							}
						}
					}
				}
			}
		}
	}
	JOINT Spine_virtual
	{
		OFFSET 0.000000 0.000000 0.000000
		CHANNELS 3 Xrotation Yrotation Zrotation
		JOINT Spine
		{
			OFFSET -0.279200 12.230698 -2.892100
			CHANNELS 3 Xrotation Yrotation Zrotation
			JOINT Spine1
			{
				OFFSET -0.232667 10.192268 -1.242267
				CHANNELS 3 Xrotation Yrotation Zrotation
				JOINT Spine1_split
				{
					OFFSET -0.232667 10.192268 -1.242267
					CHANNELS 3 Xrotation Yrotation Zrotation
					JOINT Spine2
					{
						OFFSET -0.232667 10.192268 -1.242267
						CHANNELS 3 Xrotation Yrotation Zrotation
						JOINT Neck_virtual
						{
							OFFSET 0.000000 0.000000 0.000000
							CHANNELS 3 Xrotation Yrotation Zrotation
							JOINT Neck
							{
								OFFSET -0.418800 17.814194 8.416900
								CHANNELS 3 Xrotation Yrotation Zrotation
								JOINT Head
								{
									OFFSET 0.000000 7.031097 3.806800
									CHANNELS 3 Xrotation Yrotation Zrotation
									JOINT HeadTop_End
									{
										OFFSET 0.000000 24.646606 12.978600
										CHANNELS 3 Xrotation Yrotation Zrotation
										End Site
										{
											OFFSET 0 0 0
										}
									}
								}
							}
						}
						JOINT LeftShoulder_virtual
						{
							OFFSET 0.000000 0.000000 0.000000
							CHANNELS 3 Xrotation Yrotation Zrotation
							JOINT LeftShoulder
							{
								OFFSET 8.476499 7.247704 -3.868750
								CHANNELS 3 Xrotation Yrotation Zrotation
								JOINT LeftShoulder_split
								{
									OFFSET 8.476499 7.247704 -3.868750
									CHANNELS 3 Xrotation Yrotation Zrotation
									JOINT LeftArm
									{
										OFFSET 9.308998 -2.777710 0.208600
										CHANNELS 3 Xrotation Yrotation Zrotation
										JOINT LeftForeArm
										{
											OFFSET 29.972298 0.000000 0.000000
											CHANNELS 3 Xrotation Yrotation Zrotation
											JOINT LeftHand
											{
												OFFSET 26.026505 0.000000 0.000000
												CHANNELS 3 Xrotation Yrotation Zrotation
												End Site
												{
													OFFSET 0 0 0
												}
											}
										}
									}
								}
							}
						}
						JOINT RightShoulder_virtual
						{
							OFFSET 0.000000 0.000000 0.000000
							CHANNELS 3 Xrotation Yrotation Zrotation
							JOINT RightShoulder
							{
								OFFSET -7.570500 7.247704 -3.868750
								CHANNELS 3 Xrotation Yrotation Zrotation
								JOINT RightShoulder_split
								{
									OFFSET -7.570500 7.247704 -3.868750
									CHANNELS 3 Xrotation Yrotation Zrotation
									JOINT RightArm
									{
										OFFSET -9.308998 -2.777710 0.208500
										CHANNELS 3 Xrotation Yrotation Zrotation
										JOINT RightForeArm
										{
											OFFSET -29.972300 0.000000 0.000000
											CHANNELS 3 Xrotation Yrotation Zrotation
											JOINT RightHand
											{
												OFFSET -26.026505 0.000000 0.000000
												CHANNELS 3 Xrotation Yrotation Zrotation
												End Site
												{
													OFFSET 0 0 0
												}
											}
										}
									}
								}
							}
						}
					}
				}
			}
		}
	}
}
MOTION
Frames: 8
Frame Time: 0.03333333
0.849378 87.323059 -0.407921 0.000000 0.000000 0.000000 -0.990876 -27.913274 0.588688 -22.782752 24.390209 15.582728 27.486247 6.383158 13.031811 -7.590540 2.773104 -17.282272 1.005269 -0.150442 -2.237781 0.000000 0.000000 0.000000 -1.553226 -27.015594 0.778344 -16.324967 -17.856964 -11.732270 30.439800 -0.441052 -9.714954 -16.115425 -3.899912 14.025582 -1.006379 0.786813 0.808080 0.000000 0.000000 0.000000 -0.092235 -28.845467 0.844927 3.806299 -2.022721 1.412238 0.228356 -0.896729 0.224292 1.018269 -0.304630 0.282949 0.000000 0.000000 0.000000 0.521188 -1.002125 0.258753 -1.629343 1.679613 2.965275 17.854780 24.691356 -13.125447 0.000000 0.000000 0.000000 1.015921 -0.977206 0.243650 -0.559190 2.820491 3.470804 -1.661401 0.002463 -0.143270 -53.280830 -2.092192 -48.292569 -10.494966 -86.475686 -9.886053 0.000000 0.000000 0.000000 1.865536 -0.635741 0.116835 -1.117684 -10.296053 8.908311 0.891484 2.206518 -0.016838 -66.082429 64.149424 81.979728 -12.641750 85.293142 12.552677 0.000000 0.000000 0.000000 
0.840451 87.313866 -0.422890 0.000000 0.000000 0.000000 -1.000009 -27.919243 0.587651 -22.792319 24.413676 15.593762 27.497782 6.359554 13.035632 -7.597162 2.762220 -17.287093 0.998643 -0.152470 -2.229404 0.000000 0.000000 0.000000 -1.559810 -27.019924 0.776953 -16.318840 -17.858506 -11.736503 30.417821 -0.455251 -9.702233 -16.112184 -3.904663 14.012795 -1.008169 0.788017 0.807309 0.000000 0.000000 0.000000 -0.101721 -28.845504 0.839459 3.812056 -2.026411 1.416647 0.233358 -0.897755 0.222722 1.016359 -0.320716 0.282239 0.000000 0.000000 0.000000 0.520532 -1.002518 0.254992 -1.627391 1.683010 2.973310 17.856893 24.683134 -13.125581 0.000000 0.000000 0.000000 1.020908 -0.979691 0.240178 -0.562988 2.807981 3.451449 -1.645681 0.014571 -0.143609 -53.246645 -2.101372 -48.336330 -10.230215 -86.506040 -9.632171 0.000000 0.000000 0.000000 1.868944 -0.635874 0.115483 -1.117217 -10.294679 8.920255 0.903550 2.223413 -0.003779 -66.042329 64.139479 81.963527 -12.546753 85.243090 12.462466 0.000000 0.000000 0.000000 
0.831132 87.302689 -0.440071 0.000000 0.000000 0.000000 -1.006120 -27.920946 0.580566 -22.816848 24.453582 15.619526 27.507496 6.317954 13.036238 -7.608265 2.742262 -17.271774 0.992619 -0.156240 -2.222250 0.000000 0.000000 0.000000 -1.563908 -27.012398 0.770569 -16.304090 -17.853319 -11.734309 30.400257 -0.478056 -9.677774 -16.105443 -3.910054 14.002497 -1.010960 0.789944 0.805548 0.000000 0.000000 0.000000 -0.111059 -28.842612 0.831358 3.816726 -2.031409 1.426469 0.239915 -0.898813 0.220693 1.014989 -0.337667 0.279597 0.000000 0.000000 0.000000 0.520392 -1.004861 0.250859 -1.627814 1.693801 2.987612 17.863979 24.679745 -13.131261 0.000000 0.000000 0.000000 1.024040 -0.983934 0.235755 -0.566238 2.808723 3.414882 -1.642399 0.038107 -0.121520 -53.234996 -2.093919 -48.428196 -9.737916 -86.507331 -9.152915 0.000000 0.000000 0.000000 1.871337 -0.637886 0.114521 -1.112957 -10.295959 8.949289 0.897328 2.228739 -0.005353 -65.968508 64.132580 81.916091 -12.492193 85.202819 12.418828 0.000000 0.000000 0.000000 
0.822974 87.294334 -0.452675 0.000000 0.000000 0.000000 -1.008979 -27.919230 0.569055 -22.856417 24.500795 15.657003 27.514237 6.260513 13.034888 -7.612318 2.716062 -17.237485 0.982233 -0.161266 -2.217426 0.000000 0.000000 0.000000 -1.564783 -26.994767 0.760904 -16.283067 -17.839862 -11.727100 30.384213 -0.506230 -9.646099 -16.096939 -3.914895 13.996213 -1.016026 0.792202 0.803211 0.000000 0.000000 0.000000 -0.116452 -28.835221 0.823140 3.817917 -2.036879 1.441275 0.247738 -0.899052 0.219222 1.010053 -0.346105 0.276231 0.000000 0.000000 0.000000 0.521505 -1.008560 0.247766 -1.629492 1.708279 3.003356 17.875840 24.678817 -13.141053 0.000000 0.000000 0.000000 1.025590 -0.988901 0.230926 -0.568983 2.820657 3.377130 -1.646483 0.069981 -0.081702 -53.234259 -2.067725 -48.551669 -9.111685 -86.486820 -8.542337 0.000000 0.000000 0.000000 1.872180 -0.641386 0.114084 -1.106286 -10.303821 8.988018 0.882059 2.224460 -0.020952 -65.881703 64.133147 81.847598 -12.518361 85.189644 12.460030 0.000000 0.000000 0.000000 
0.816507 87.289375 -0.465939 0.000000 0.000000 0.000000 -1.007879 -27.911505 0.555855 -22.908460 24.548420 15.698790 27.518118 6.191401 13.032842 -7.602148 2.690806 -17.185319 0.969430 -0.167098 -2.217493 0.000000 0.000000 0.000000 -1.563815 -26.968874 0.750100 -16.261350 -17.818635 -11.716348 30.368834 -0.538470 -9.610700 -16.089815 -3.919705 13.990352 -1.016394 0.794223 0.801529 0.000000 0.000000 0.000000 -0.117009 -28.822777 0.816812 3.815869 -2.042144 1.458621 0.257085 -0.898790 0.219031 1.006197 -0.352920 0.274300 0.000000 0.000000 0.000000 0.523866 -1.012910 0.246549 -1.630879 1.724098 3.014583 17.888955 24.677050 -13.151835 0.000000 0.000000 0.000000 1.026427 -0.994011 0.226614 -0.570866 2.838577 3.358334 -1.657817 0.105015 -0.050676 -53.227763 -2.022181 -48.687105 -8.558989 -86.464376 -8.006607 0.000000 0.000000 0.000000 1.871934 -0.645377 0.114751 -1.098809 -10.319936 9.026273 0.864662 2.219768 -0.041733 -65.799085 64.151473 81.774617 -12.615457 85.209929 12.572695 0.000000 0.000000 0.000000 
0.811228 87.286514 -0.480583 0.000000 0.000000 0.000000 -1.002675 -27.894933 0.544554 -22.972248 24.592277 15.737050 27.521639 6.117063 13.030667 -7.581294 2.674189 -17.119301 0.963909 -0.172973 -2.225749 0.000000 0.000000 0.000000 -1.560583 -26.940078 0.741526 -16.242362 -17.791415 -11.703918 30.351650 -0.573110 -9.575177 -16.088883 -3.925004 13.979981 -1.006669 0.795596 0.801386 0.000000 0.000000 0.000000 -0.115110 -28.804936 0.812375 3.812693 -2.046346 1.474574 0.268245 -0.898198 0.220049 1.005006 -0.359050 0.276009 0.000000 0.000000 0.000000 0.527385 -1.016961 0.247683 -1.632341 1.738604 3.018386 17.895861 24.669206 -13.158224 0.000000 0.000000 0.000000 1.028568 -0.998719 0.223209 -0.571841 2.855800 3.376715 -1.658445 0.138200 -0.024846 -53.205579 -1.953543 -48.815734 -8.187444 -86.471636 -7.656327 0.000000 0.000000 0.000000 1.871747 -0.648481 0.116787 -1.092482 -10.344121 9.060641 0.848177 2.217415 -0.063091 -65.732416 64.191935 81.707477 -12.739625 85.250842 12.709232 0.000000 0.000000 0.000000 
0.807909 87.282555 -0.496861 0.000000 0.000000 0.000000 -0.992753 -27.869846 0.537757 -23.044698 24.630393 15.766776 27.529274 6.039584 13.029730 -7.557174 2.667367 -17.049814 0.966429 -0.178656 -2.241923 0.000000 0.000000 0.000000 -1.553882 -26.910612 0.737574 -16.229660 -17.763766 -11.693052 30.338894 -0.609437 -9.541700 -16.095452 -3.931611 13.962693 -0.990844 0.796058 0.802485 0.000000 0.000000 0.000000 -0.112928 -28.783606 0.808819 3.811828 -2.048424 1.484418 0.282251 -0.897410 0.221062 1.010798 -0.361041 0.281087 0.000000 0.000000 0.000000 0.531336 -1.019435 0.250670 -1.635078 1.749244 3.014627 17.892565 24.655405 -13.155306 0.000000 0.000000 0.000000 1.033327 -1.001879 0.220928 -0.571724 2.865296 3.446436 -1.653997 0.165036 -0.012609 -53.165936 -1.857594 -48.918600 -8.097510 -86.523170 -7.589454 0.000000 0.000000 0.000000 1.872661 -0.649256 0.120184 -1.088695 -10.376587 9.093614 0.836680 2.213784 -0.075093 -65.674256 64.252505 81.642604 -12.867112 85.306221 12.842999 0.000000 0.000000 0.000000 
0.806949 87.274773 -0.512451 0.000000 0.000000 0.000000 -0.978488 -27.838856 0.535875 -23.122760 24.661853 15.787065 27.548368 5.957887 13.030252 -7.538757 2.667209 -16.990201 0.967123 -0.183496 -2.260498 0.000000 0.000000 0.000000 -1.543510 -26.883022 0.738055 -16.227561 -17.742801 -11.686494 30.336688 -0.645265 -9.511321 -16.106761 -3.938925 13.941976 -0.977334 0.795680 0.803541 0.000000 0.000000 0.000000 -0.109803 -28.757624 0.804133 3.817058 -2.047154 1.484376 0.299060 -0.896305 0.220888 1.022416 -0.368988 0.286192 0.000000 0.000000 0.000000 0.534429 -1.019369 0.253775 -1.640379 1.753122 3.007845 17.876120 24.632628 -13.137057 0.000000 0.000000 0.000000 1.041704 -1.002668 0.218922 -0.570706 2.863884 3.572770 -1.643917 0.188635 -0.006778 -53.127131 -1.732448 -48.985000 -8.282174 -86.621415 -7.800059 0.000000 0.000000 0.000000 1.876975 -0.646017 0.123821 -1.089391 -10.416574 9.132780 0.834492 2.202519 -0.076389 -65.614014 64.320540 81.568762 -13.015706 85.385520 12.990052 0.000000 0.000000 0.000000 
